<?xml version="1.0" encoding="utf-8"?>
<!-- Generator: Adobe Illustrator 26.5.2, SVG Export Plug-In . SVG Version: 6.00 Build 0)  -->
<svg version="1.1" id="Livello_1" xmlns="http://www.w3.org/2000/svg" xmlns:xlink="http://www.w3.org/1999/xlink" x="0px" y="0px"
	 viewBox="0 0 174 33" style="enable-background:new 0 0 174 33;" xml:space="preserve">
<style type="text/css">
	.st0{fill:#D1AB8B;}
</style>
<g>
	<g>
		<path d="M10.5,10.3H0.3v11.9h3.8v-3h7.5c2.7,0,3.5-2,3.5-3.8v-1C14.9,12,14.1,10.3,10.5,10.3z M11.1,15c0,0.7-0.3,1.3-1.2,1.3H4
			v-3h5.5c1.1,0,1.5,0.5,1.5,1.3L11.1,15L11.1,15z"/>
		<path d="M29.8,10.1h-6c-3.4,0-5.4,0.8-5.4,4.3V18c0,3.5,2,4.3,5.4,4.3h6c3.4,0,5.4-0.8,5.4-4.3v-3.6C35.2,11,33.1,10.1,29.8,10.1z
			 M31.3,16.9c0,1.7-0.4,2.4-2.1,2.4h-4.8c-1.8,0-2.1-0.7-2.1-2.4v-1.3c0-1.5,0.4-2.4,2.4-2.4h4.2c2,0,2.4,0.9,2.4,2.4
			C31.3,15.6,31.3,16.9,31.3,16.9z"/>
		<polygon points="42.8,10.3 39.1,10.3 39.1,22.2 51.3,22.2 51.3,19.2 42.8,19.2 		"/>
		<rect x="54.7" y="10.3" width="3.8" height="11.9"/>
		<path d="M72.6,19.3h-4c-1.8,0-2.1-0.7-2.1-2.4v-1.3c0-1.5,0.4-2.4,2.4-2.4h4c1.1,0,1.8,0.2,1.8,1.1v0.3h3.8c0-3.4-0.7-4.5-6-4.5
			h-4.4c-3.4,0-5.4,0.8-5.4,4.3V18c0,3.5,2,4.3,5.4,4.3h6.1c3.8,0,4.5-1.6,4.5-3.6v-1.1h-3.8C74.8,19.1,74.3,19.3,72.6,19.3z"/>
		<polygon points="86.2,17.4 95.3,17.4 95.3,15 86.2,15 86.2,13 95.8,13 95.8,10.3 82.4,10.3 82.4,22.2 96.1,22.2 96.1,19.4 
			86.2,19.4 		"/>
	</g>
	<g>
		<g>
			<g>
				<g>
					<path class="st0" d="M153.6,4.9l-1.8-2h1.2l1,1.3l1-1.3h1.2l-1.8,2V6h-0.9V4.9H153.6z"/>
					<path class="st0" d="M160,2.8v0.7h-2.5V4h2.4v0.6h-2.4v0.6h2.5v0.7h-3.5V2.8H160z"/>
					<path class="st0" d="M162,2.8h1.3l1.7,3.1h-1l-0.3-0.6h-2l-0.3,0.6h-1.1L162,2.8z M163.3,4.7l-0.7-1.2l-0.7,1.2H163.3z"/>
					<path class="st0" d="M165.2,2.8h2.7c0.1,0,0.2,0,0.3,0s0.2,0,0.2,0c0.1,0,0.1,0,0.2,0s0.1,0,0.1,0.1c0.1,0.1,0.2,0.2,0.3,0.3
						s0.1,0.3,0.1,0.6s-0.1,0.6-0.2,0.7l-0.1,0.1c0,0-0.1,0-0.1,0.1c-0.1,0-0.1,0-0.2,0c-0.1,0-0.2,0-0.3,0h0.1c0,0,0,0,0.1,0
						c0.2,0,0.3,0,0.4,0c0.1,0,0.1,0.1,0.2,0.1c0,0.1,0.1,0.1,0.1,0.2s0,0.2,0,0.3v0.5h-1V5.6c0-0.1,0-0.2,0-0.2
						c0-0.1,0-0.1-0.1-0.1h-0.1c-0.1,0-0.1,0-0.3,0h-1.4v0.8h-0.9V2.8H165.2z M167.6,4.4c0.1,0,0.2,0,0.3,0s0.1,0,0.2-0.1l0.1-0.1
						c0,0,0-0.1,0-0.2s0-0.2,0-0.2s0-0.1-0.1-0.1c0,0,0,0-0.1,0c0,0,0,0-0.1,0h-0.1c0,0-0.1,0-0.2,0h-1.5v0.8h1.5L167.6,4.4
						L167.6,4.4z"/>
					<path class="st0" d="M170.5,4.9c0,0.1,0,0.2,0,0.2l0.1,0.1c0,0,0.1,0,0.2,0c0.1,0,0.3,0,0.4,0c0.3,0,0.5,0,0.7,0s0.3,0,0.4,0
						c0.1,0,0.1,0,0.2-0.1c0,0,0-0.1,0-0.2s-0.1-0.2-0.2-0.3c0,0,0,0-0.1,0c0,0,0,0-0.1,0c0,0-0.1,0-0.2,0c-0.1,0-0.2,0-0.3,0h-0.7
						c-0.1,0-0.3,0-0.4,0c-0.1,0-0.2,0-0.3,0s-0.1,0-0.2,0c-0.1,0-0.1,0-0.2-0.1c-0.1-0.1-0.2-0.2-0.2-0.3c-0.1-0.1-0.1-0.3-0.1-0.5
						c0-0.1,0-0.3,0-0.4c0-0.1,0.1-0.2,0.1-0.3s0.1-0.1,0.2-0.2c0.1,0,0.2-0.1,0.3-0.1s0.1,0,0.2,0c0.1,0,0.2,0,0.3,0s0.2,0,0.4,0
						c0.1,0,0.3,0,0.5,0c0.3,0,0.5,0,0.7,0s0.3,0,0.4,0c0.1,0,0.2,0,0.3,0.1c0.1,0,0.1,0.1,0.2,0.1c0.1,0,0.1,0.1,0.1,0.1
						s0.1,0.1,0.1,0.2c0,0.1,0,0.1,0,0.2c0,0.1,0,0.2,0,0.3h-0.9c0-0.1,0-0.1,0-0.2c0,0,0-0.1-0.1-0.1s-0.1,0-0.2,0
						c-0.1,0-0.2,0-0.4,0c-0.1,0-0.2,0-0.2,0c-0.1,0-0.2,0-0.2,0c-0.1,0-0.2,0-0.2,0c-0.1,0-0.1,0-0.2,0c-0.1,0-0.2,0-0.3,0.1
						c0,0-0.1,0.1-0.1,0.2c0,0.1,0.1,0.2,0.2,0.2l0,0c0,0,0,0,0.1,0h0.1c0,0,0.1,0,0.2,0h0.9h0.1c0.1,0,0.1,0,0.2,0
						c0.1,0,0.1,0,0.2,0c0.1,0,0.1,0,0.2,0c0.1,0,0.3,0,0.4,0.1s0.2,0.1,0.3,0.2s0.1,0.2,0.1,0.3c0,0.1,0,0.2,0,0.4
						c0,0.1,0,0.3,0,0.4s-0.1,0.2-0.1,0.3s-0.1,0.1-0.2,0.2c-0.1,0-0.2,0.1-0.3,0.1C172.7,6,172.2,6,171.5,6c-0.3,0-0.5,0-0.7,0
						s-0.3,0-0.4,0c-0.1,0-0.2,0-0.3-0.1c-0.1,0-0.1,0-0.2-0.1c-0.2-0.1-0.3-0.3-0.3-0.7c0,0,0,0,0-0.1V4.9H170.5z"/>
				</g>
			</g>
			<path class="st0" d="M173,10.1c-0.1-0.2-0.3-0.5-0.5-0.7c-0.1-0.2-0.3-0.3-0.4-0.4c0,0-0.1,0-0.1-0.1c-0.2-0.1-0.3-0.2-0.5-0.3
				s-0.3-0.2-0.5-0.2c-0.2-0.1-0.3-0.1-0.5-0.2c-0.1,0-0.3-0.1-0.5-0.1s-0.3,0-0.5,0h-0.1h-18.2c-0.5-2.3-1.6-4.1-3.3-5.6
				c-0.9-0.8-2-1.4-3.2-1.8s-2.4-0.6-3.7-0.6s-2.5,0.2-3.7,0.7c-1.2,0.4-2.2,1.1-3.2,1.9c-1.2,1-2.1,2.3-2.6,3.8
				c-0.5,1.4-0.8,3.1-0.8,4.9v10.9h-1.9V0h-3.4l-18.5,25.7h18.5V33h3.7v-7.3h5.5V11.3c0-1.4,0.2-2.6,0.6-3.5c0.4-1,0.9-1.8,1.5-2.4
				s1.3-1,2.1-1.3s1.6-0.5,2.5-0.5c0.8,0,1.6,0.1,2.5,0.4c0.8,0.3,1.6,0.7,2.2,1.3c0.6,0.6,1.2,1.4,1.6,2.3c0.4,1,0.6,2.2,0.6,3.7
				v0.2h3.6h3.8h14.1l0,0h0.1c0,0,0,0,0.1,0l0,0c0,0,0,0,0.1,0.1l0.1,0.1c0,0.1,0,0.1,0,0.2l0,0c0,0.1-0.1,0.1-0.1,0.2l0,0l-2.6,2.6
				l0,0c0,0-0.1,0-0.1,0.1h-0.1c0,0,0,0-0.1,0h-11.5h-3.8h-3.6v3.5h3.6h3.8h6.9h0.1h0.1c0,0,0.1,0,0.1,0.1l0,0c0,0,0,0.1,0.1,0.1
				c0.1,0.2,0.1,0.4,0,0.5c0,0,0,0.1-0.1,0.1l-2.8,2.8l0,0c0,0-0.1,0-0.1,0.1h-0.1h-0.1h-4.2h-3.8h-3.6v0.1v1v2.4h3.7h0.4h2.8
				c0,0,0,0,0.1,0h0.1h0.1c0,0,0,0,0.1,0c0,0,0.1,0,0.1,0.1c0,0,0.1,0.1,0.1,0.2s0,0.2,0,0.3c0,0.1-0.1,0.1-0.1,0.2l0,0l-2.8,2.8
				c0,0,0,0-0.1,0h-0.1h-0.1h-0.1l0,0h-4.1v1.2c0,0.2,0,0.4,0,0.5v1.1V33h4.2h0.1c0.2,0,0.3,0,0.5,0s0.3-0.1,0.5-0.1
				s0.3-0.1,0.5-0.2c0.2-0.1,0.3-0.2,0.5-0.3s0.3-0.2,0.5-0.4l0.1-0.1l2.8-2.8c0.1-0.1,0.2-0.2,0.2-0.3c0.2-0.2,0.3-0.5,0.5-0.7
				c0.4-0.7,0.5-1.6,0.4-2.4h0.7c0.1,0,0.3,0,0.4,0c0.2,0,0.3,0,0.5-0.1c0.2,0,0.3-0.1,0.5-0.1c0.2-0.1,0.3-0.1,0.5-0.2
				s0.3-0.2,0.5-0.3c0.1-0.1,0.3-0.2,0.4-0.3l2.8-2.8l0,0c0.2-0.2,0.3-0.4,0.5-0.6c0.2-0.3,0.4-0.6,0.5-1c0.2-0.6,0.2-1.2,0.2-1.7
				h0.6c0.1,0,0.2,0,0.3,0c0.2,0,0.3,0,0.5-0.1c0.2,0,0.3-0.1,0.5-0.1c0.2-0.1,0.3-0.1,0.5-0.2s0.3-0.2,0.5-0.3
				c0.2-0.1,0.3-0.2,0.4-0.4l2.6-2.6c0.1-0.1,0.2-0.2,0.3-0.3c0.2-0.2,0.3-0.4,0.5-0.7c0.3-0.5,0.4-1,0.5-1.5
				C173.6,11.5,173.4,10.8,173,10.1z M125.4,22.2l-12-0.1l12.1-16.7L125.4,22.2z"/>
		</g>
	</g>
</g>
</svg>
